
<svg xmlns="http://www.w3.org/2000/svg" version="1.1" xmlns:xlink="http://www.w3.org/1999/xlink" preserveAspectRatio="none" x="0px" y="0px" width="550px" height="400px" viewBox="0 0 550 400">
<defs>
<g id="_______1_0_Layer0_0_FILL">
<path fill="#FFCC99" stroke="none" d="
M 119.5 59.75
Q 119.5 35 102 17.5 84.5 0 59.75 0 35 0 17.5 17.5 0 35 0 59.75 0 84.5 17.5 102 35 119.5 59.75 119.5 84.5 119.5 102 102 119.5 84.5 119.5 59.75 Z"/>
</g>

<path id="Layer1_0_1_STROKES" stroke="#FF3300" stroke-opacity="0" stroke-width="1" stroke-linejoin="round" stroke-linecap="round" fill="none" d="
M 129.5 199.8
Q 129.5 224.55 112 242.05 94.5 259.55 69.75 259.55 45 259.55 27.5 242.05 10 224.55 10 199.8 10 175.05 27.5 157.55 45 140.05 69.75 140.05 94.5 140.05 112 157.55 129.5 175.05 129.5 199.8 Z"/>
</defs>

<g transform="matrix( 1, 0, 0, 1, 0,0) ">
<use xlink:href="#Layer1_0_1_STROKES"/>
</g>

<g transform="matrix( 1, 0, 0, 1, 216,261) ">
<g transform="matrix( 1, 0, 0, 1, 0,0) ">
<use xlink:href="#_______1_0_Layer0_0_FILL"/>
</g>
</g>
</svg>
